<svg width="271" height="304" viewBox="0 0 271 304" fill="none" xmlns="http://www.w3.org/2000/svg">
<g filter="url(#filter0_d_17_69)">
<path d="M117.375 118.515V117.563C117.375 116.7 118.102 116 119 116C119.898 116 120.625 116.7 120.625 117.563V118.515C120.625 119.379 119.898 120.079 119 120.079C118.102 120.079 117.375 119.378 117.375 118.515ZM101.658 123.404C101.959 123.905 102.505 124.186 103.067 124.186C103.342 124.186 103.622 124.118 103.877 123.977C104.655 123.545 104.922 122.589 104.473 121.841L103.979 121.017C103.53 120.269 102.536 120.012 101.759 120.444C100.981 120.875 100.715 121.832 101.163 122.579L101.658 123.404ZM134.122 123.977C134.378 124.119 134.657 124.186 134.933 124.186C135.495 124.186 136.041 123.906 136.342 123.404L136.837 122.58C137.285 121.832 137.019 120.876 136.242 120.444C135.465 120.013 134.471 120.269 134.022 121.017L133.527 121.841C133.078 122.588 133.345 123.544 134.122 123.977ZM146.601 135.408C146.877 135.408 147.157 135.34 147.413 135.198L148.269 134.722C149.046 134.29 149.313 133.334 148.864 132.586C148.415 131.838 147.421 131.582 146.644 132.014L145.787 132.49C145.01 132.922 144.744 133.878 145.192 134.626C145.493 135.127 146.039 135.408 146.601 135.408ZM150.826 163.136C148.715 167.159 142.818 169.863 136.15 169.863C131.58 169.863 127.299 168.595 124.388 166.424C122.721 167.523 120.96 168.231 119.216 168.447C119.137 168.457 119.057 168.46 118.98 168.46C118.915 168.459 118.85 168.455 118.784 168.447C117.04 168.23 115.28 167.523 113.612 166.424C110.702 168.595 106.421 169.863 101.85 169.863C95.1822 169.863 89.2847 167.159 87.1742 163.136C86.942 162.693 86.9418 162.17 87.1742 161.727C88.7314 158.758 92.2924 156.506 96.7983 155.53C94.4601 152.335 93.6066 148.56 94.6654 145.331C94.795 144.936 95.0827 144.606 95.4645 144.415C98.1351 143.077 101.522 142.98 104.819 144.091C105.308 142.531 106.078 141.174 107.122 140.116C107.479 139.755 107.995 139.578 108.509 139.642C109.361 139.748 110.217 139.971 111.065 140.3C112.784 136.804 115.319 134.197 118.322 132.871C118.752 132.681 119.247 132.681 119.677 132.871C122.679 134.196 125.213 136.802 126.933 140.295C127.78 139.969 128.637 139.748 129.492 139.642C130.006 139.578 130.521 139.755 130.878 140.116C131.922 141.174 132.692 142.531 133.181 144.091C136.478 142.98 139.865 143.077 142.535 144.415C142.917 144.606 143.205 144.936 143.334 145.331C144.394 148.56 143.54 152.335 141.201 155.53C145.708 156.506 149.269 158.757 150.826 161.727C151.058 162.17 151.058 162.693 150.826 163.136ZM131.147 158.701C132.912 158.279 134.665 157.41 136.21 156.164C139.364 153.618 141.016 149.911 140.404 146.915C138.495 146.202 136.114 146.312 133.768 147.218C133.993 150.137 133.446 153.439 132.094 156.689C131.807 157.38 131.49 158.052 131.147 158.701ZM113.915 141.823C115.787 143.106 117.534 144.88 118.997 147.003C120.467 144.857 122.211 143.086 124.079 141.811C122.828 139.209 121.036 137.174 119 136.05C116.961 137.176 115.167 139.216 113.915 141.823ZM101.79 156.164C103.334 157.41 105.088 158.279 106.853 158.701C106.511 158.052 106.194 157.38 105.906 156.689C104.555 153.439 104.008 150.137 104.232 147.218C101.886 146.312 99.505 146.201 97.5955 146.914C96.9837 149.911 98.6357 153.618 101.79 156.164ZM111.045 164.35C110.345 163.673 109.676 162.925 109.05 162.117C105.829 162.064 102.469 160.794 99.7005 158.559C99.5839 158.465 99.4696 158.37 99.3565 158.274C95.398 158.746 92.0801 160.315 90.5192 162.431C92.4169 164.999 96.9039 166.736 101.849 166.736C105.36 166.736 108.719 165.845 111.045 164.35ZM118.368 152.562C116.749 148.668 114.041 145.457 111.194 143.836C111.115 143.799 111.04 143.758 110.969 143.711C110.295 143.348 109.616 143.076 108.942 142.905C108.268 143.832 107.817 145.017 107.592 146.368C107.587 146.45 107.574 146.533 107.554 146.614C107.179 149.223 107.627 152.409 108.924 155.527C110.233 158.674 112.252 161.375 114.482 163.151C114.534 163.188 114.584 163.227 114.632 163.27C115.84 164.206 117.106 164.869 118.35 165.185C120.348 162.438 120.388 157.417 118.368 152.562ZM129.076 155.527C130.372 152.41 130.82 149.225 130.446 146.617C130.425 146.533 130.412 146.448 130.407 146.364C130.182 145.015 129.731 143.83 129.058 142.904C128.394 143.072 127.724 143.338 127.058 143.693C126.97 143.754 126.874 143.807 126.772 143.851C124.561 145.115 122.428 147.341 120.821 150.144C121.02 150.555 121.209 150.974 121.386 151.4C123.229 155.831 123.577 160.36 122.51 163.882C122.799 163.693 123.087 163.487 123.372 163.266C123.417 163.226 123.464 163.189 123.513 163.155C125.744 161.379 127.766 158.677 129.076 155.527ZM147.481 162.431C145.92 160.315 142.602 158.746 138.643 158.274C138.53 158.37 138.415 158.465 138.299 158.559C135.53 160.794 132.171 162.064 128.95 162.117C128.324 162.925 127.655 163.673 126.955 164.35C129.282 165.845 132.64 166.736 136.15 166.736C141.096 166.736 145.583 164.999 147.481 162.431ZM134.755 173.995C134.079 173.428 133.052 173.496 132.463 174.147C131.438 175.279 126.583 176.873 119 176.873C111.417 176.873 106.562 175.279 105.538 174.147C104.948 173.496 103.921 173.428 103.244 173.995C102.568 174.562 102.497 175.55 103.087 176.201C105.626 179.005 113.246 180 119 180C124.754 180 132.375 179.005 134.914 176.201C135.503 175.55 135.432 174.562 134.755 173.995ZM97.6345 140.913C98.4978 141.147 99.3961 140.664 99.6397 139.833C102.069 131.537 110.031 125.744 119 125.744C127.97 125.744 135.931 131.537 138.36 139.833C138.563 140.522 139.215 140.973 139.924 140.973C140.07 140.973 140.218 140.953 140.366 140.913C141.23 140.679 141.732 139.816 141.489 138.985C138.667 129.347 129.419 122.617 119 122.617C108.581 122.617 99.3333 129.347 96.511 138.985C96.2677 139.816 96.7705 140.679 97.6345 140.913ZM119 174.745C120.396 174.745 125.082 174.602 126.749 172.759C127.339 172.108 127.268 171.12 126.591 170.553C125.917 169.989 124.898 170.054 124.307 170.696C123.936 171.02 122.012 171.618 119 171.618C115.987 171.618 114.063 171.02 113.692 170.696C113.102 170.054 112.082 169.989 111.409 170.554C110.732 171.121 110.661 172.108 111.251 172.759C112.919 174.602 117.604 174.745 119 174.745ZM89.7308 134.722L90.5869 135.198C90.843 135.34 91.1226 135.408 91.3986 135.408C91.96 135.408 92.5062 135.128 92.8075 134.626C93.2565 133.879 92.9907 132.922 92.2132 132.49L91.3571 132.014C90.5804 131.583 89.5858 131.838 89.1368 132.586C88.6877 133.333 88.9537 134.29 89.7308 134.722Z" fill="black"/>
</g>
<defs>
<filter id="filter0_d_17_69" x="-33" y="0" width="304" height="304" filterUnits="userSpaceOnUse" color-interpolation-filters="sRGB">
<feFlood flood-opacity="0" result="BackgroundImageFix"/>
<feColorMatrix in="SourceAlpha" type="matrix" values="0 0 0 0 0 0 0 0 0 0 0 0 0 0 0 0 0 0 127 0" result="hardAlpha"/>
<feOffset dy="4"/>
<feGaussianBlur stdDeviation="60"/>
<feColorMatrix type="matrix" values="0 0 0 0 1 0 0 0 0 1 0 0 0 0 1 0 0 0 0.5 0"/>
<feBlend mode="normal" in2="BackgroundImageFix" result="effect1_dropShadow_17_69"/>
<feBlend mode="normal" in="SourceGraphic" in2="effect1_dropShadow_17_69" result="shape"/>
</filter>
</defs>
</svg>
